<svg xmlns="http://www.w3.org/2000/svg" viewBox="0 0 122.89 122.89" style="enable-background:new 0 0 122.89 122.89" xml:space="preserve"><path fill="#478aff" d="M61.44 33.47c-15.45 0-28 12.54-28 28 0 15.47 12.54 28.01 28 28.01 15.47 0 28.01-12.54 28.01-28.01-.01-15.46-12.55-27.99-28.01-28zm55.93 2.54-.54-1.17-.84.98a19.21 19.21 0 0 1-7.7 5.3l-.84.3.33.84a50.295 50.295 0 0 1 3.85 19.28c0 27.73-22.49 50.24-50.23 50.24S11.18 89.27 11.18 61.53 33.67 11.3 61.41 11.3c7.46 0 14.81 1.66 21.55 4.86l.78.37.33-.84c1.25-2.89 3.21-5.45 5.68-7.42l.99-.84-1.13-.59A60.833 60.833 0 0 0 61.58 0h-.16C27.51 0 0 27.51 0 61.44s27.53 61.44 61.44 61.44c33.94 0 61.44-27.51 61.44-61.44 0-8.8-1.88-17.51-5.54-25.5l.03.07zm-2.97-12.82c0-7.04-5.7-12.75-12.75-12.75-7.04 0-12.75 5.71-12.75 12.75 0 7.06 5.71 12.77 12.75 12.77 7.06 0 12.75-5.72 12.75-12.77z"/></svg>